<svg xmlns="http://www.w3.org/2000/svg" xmlns:xlink="http://www.w3.org/1999/xlink" id="svg" width="400" height="423.077" viewBox="0 0 400 423.077"><g id="svgg"><path id="path0" fill="#375F8A" fill-rule="evenodd" stroke="none" d="M101.269 11.175 C 17.183 32.638,0.735 76.317,21.198 223.801 C 42.090 374.375,62.718 406.138,142.617 410.764 C 182.687 413.083,189.817 410.085,266.352 358.738 C 375.812 285.302,390.465 267.584,389.952 209.277 C 389.437 150.556,372.250 131.426,264.826 70.011 C 160.057 10.113,137.384 1.957,101.269 11.175 M238.511 100.482 C 355.297 168.099,373.198 194.864,340.125 252.408 C 323.136 281.966,181.612 373.077,152.688 373.077 C 90.782 373.077,78.083 352.025,59.634 218.822 C 45.520 116.912,45.537 111.350,60.036 85.912 C 90.145 33.088,127.358 36.126,238.511 100.482"/></g></svg>